<?xml version="1.0" encoding="utf-8"?>
<!-- Generator: Adobe Illustrator 23.0.1, SVG Export Plug-In . SVG Version: 6.00 Build 0)  -->
<svg version="1.1" id="Calque_1" xmlns="http://www.w3.org/2000/svg" xmlns:xlink="http://www.w3.org/1999/xlink" x="0px" y="0px"
	 viewBox="0 0 100 125" style="enable-background:new 0 0 100 125;" xml:space="preserve">
<g>
	<path d="M67.7,40.5c1.2-2.3,1.7-4.9,1.5-7.5c-0.3-3.6-2-6.8-4.8-9.1c-2.8-2.3-6.3-3.4-9.9-3.1c-4.9,0.4-9.1,3.5-11.1,7.9
		c0,0.1-0.1,0.2-0.1,0.2c-1.9-0.7-3.8-1-5.8-1c-7.3,0-13.7,4.4-16.3,11.1c-6.1,0.9-10.7,6.1-10.7,12.4C10.5,58.4,16.1,64,23,64h34.8
		c7.4,0,13.5-6.1,13.5-13.5c0-3.7-1.5-7-3.9-9.5C67.5,40.9,67.6,40.7,67.7,40.5z M46.2,30c1.5-3.5,4.9-5.8,8.6-6.2
		c2.8-0.3,5.5,0.6,7.7,2.4s3.5,4.3,3.7,7.1c0.2,2-0.2,4-1.1,5.8c0,0,0,0,0,0c-1.7-1.1-3.6-1.8-5.7-2.1c-2.2-2.9-5.8-4.5-9.5-4
		C48.7,32,47.4,31,46,30.3C46.1,30.2,46.1,30.1,46.2,30z M57.8,61H23c-5.2,0-9.5-4.3-9.5-9.5c0-5,3.9-9.2,8.9-9.5l1-0.1l0.3-1
		c2-6,7.5-10,13.8-10c4.1,0,7.9,1.7,10.7,4.7l0.6,0.6l0.8-0.2c3.1-0.6,6.1,0.7,7.7,3.2l0.4,0.6l0.7,0c5.5,0.3,9.8,4.9,9.8,10.5
		C68.3,56.3,63.5,61,57.8,61z"/>
	<path d="M54,19.1c0,0,0.1,0,0.1,0c0.8-0.1,1.4-0.8,1.4-1.6l-0.5-5.9c-0.1-0.8-0.8-1.4-1.6-1.4c-0.8,0.1-1.4,0.8-1.4,1.6l0.5,5.9
		C52.6,18.5,53.2,19.1,54,19.1z"/>
	<path d="M78.4,31.2l-5.9,0.5c-0.8,0.1-1.4,0.8-1.4,1.6c0.1,0.8,0.7,1.4,1.5,1.4c0,0,0.1,0,0.1,0l5.9-0.5c0.8-0.1,1.4-0.8,1.4-1.6
		C80,31.7,79.3,31.1,78.4,31.2z"/>
	<path d="M69.3,27.8c0.3,0.5,0.8,0.8,1.3,0.8c0.2,0,0.5-0.1,0.7-0.2l2.6-1.4c0.7-0.4,1-1.3,0.6-2c-0.4-0.7-1.3-1-2-0.6l-2.6,1.4
		C69.2,26.1,68.9,27,69.3,27.8z"/>
	<path d="M60.3,20.2c0.2,0,0.3,0.1,0.5,0.1c0.6,0,1.2-0.4,1.4-1l0.9-2.8c0.3-0.8-0.2-1.6-1-1.9c-0.8-0.3-1.6,0.2-1.9,1l-0.9,2.8
		C59.1,19.1,59.5,19.9,60.3,20.2z"/>
	<path d="M46.6,20.5c0.3,0.5,0.8,0.8,1.3,0.8c0.2,0,0.5-0.1,0.7-0.2c0.7-0.4,1-1.3,0.7-2L48,16.5c-0.4-0.7-1.3-1-2-0.6
		c-0.7,0.4-1,1.3-0.7,2L46.6,20.5z"/>
	<path d="M75,39.4l-2.8-0.9c-0.8-0.3-1.6,0.2-1.9,1c-0.3,0.8,0.2,1.6,1,1.9l2.8,0.9c0.2,0,0.3,0.1,0.5,0.1c0.6,0,1.2-0.4,1.4-1
		C76.2,40.5,75.8,39.6,75,39.4z"/>
	<path d="M66.6,23c0.4,0,0.9-0.2,1.2-0.5l3.8-4.5c0.5-0.6,0.4-1.6-0.2-2.1c-0.6-0.5-1.6-0.4-2.1,0.2l-3.8,4.5
		c-0.5,0.6-0.4,1.6,0.2,2.1C65.9,22.9,66.2,23,66.6,23z"/>
	<path d="M41.4,24.9c0.3,0.2,0.6,0.3,1,0.3c0.4,0,0.9-0.2,1.2-0.5c0.5-0.6,0.4-1.6-0.2-2.1l-4.5-3.8c-0.6-0.5-1.6-0.4-2.1,0.2
		s-0.4,1.6,0.2,2.1L41.4,24.9z"/>
</g>
</svg>
