<svg xmlns:dc="http://purl.org/dc/elements/1.1/" xmlns:cc="http://creativecommons.org/ns#" xmlns:rdf="http://www.w3.org/1999/02/22-rdf-syntax-ns#" xmlns:svg="http://www.w3.org/2000/svg" xmlns="http://www.w3.org/2000/svg" xmlns:sodipodi="http://sodipodi.sourceforge.net/DTD/sodipodi-0.dtd" xmlns:inkscape="http://www.inkscape.org/namespaces/inkscape" version="1.1" x="0px" y="0px" viewBox="0 0 100 125"><g transform="translate(0,-952.36218)"><path style="text-indent:0;text-transform:none;direction:ltr;block-progression:tb;baseline-shift:baseline;color:#000000;enable-background:accumulate;" d="M 7.8125,7 C 7.3540975,7.0874665 6.9917766,7.5334 7,8 l 0,84 c 5.24e-5,0.523584 0.4764155,0.999948 1,1 l 84,0 c 0.523584,-5.2e-5 0.999948,-0.476416 1,-1 L 93,8 C 92.999948,7.4764155 92.523584,7.0000524 92,7 63.941412,6.9999998 35.857519,7 7.8125,7 z M 9,9 91,9 91,91 9,91 z M 81.84375,21 C 81.722799,21.02012 81.605626,21.06273 81.5,21.125 77.030588,23.69033 74.18049,25.02575 71.25,25.84375 68.717922,23.04162 65.423631,21.93442 61.96875,22 c -4.527922,0.086 -8.170398,2.40638 -10.5625,5.65625 -2.174191,2.95382 -3.314245,6.65343 -3.375,10.28125 C 37.432474,37.70699 28.763049,30.82704 23.875,22.46875 23.508811,21.832351 22.391111,21.891178 22.09375,22.5625 19.980899,27.24588 19.450351,31.5349 20.40625,35.40625 21.117556,38.287 22.855685,40.832 25.0625,43.25 23.484244,42.702152 22.09529,41.945616 20.71875,41.09375 20.164758,40.72537 19.777327,40.32789 19.8125,40.375 19.320758,39.689947 17.9911,40.125525 18,40.96875 c -0.05168,3.59824 1.801541,7.50535 4.6875,10.71875 1.284588,1.4303 2.821694,2.7067 4.46875,3.75 -2.349422,-0.3669 -4.517968,-0.8644 -5.78125,-1.375 -0.71648,-0.29213 -1.587284,0.55794 -1.3125,1.28125 0.549836,1.4683 2.300863,3.98195 5.4375,6.34375 2.546831,1.9177 6.054347,3.5519 10.40625,4.0625 C 30.542711,68.9907 22.193306,70.25 17.0625,70 16.267965,69.95517 15.733009,71.110675 16.28125,71.6875 19.869331,75.4669 28.084099,78.9815 38,79 57.934736,79.037 76.318723,62.5699 75.96875,38.5 c 0.359647,-0.19242 1.1654,-0.55425 2.6875,-1.90625 2.713199,-2.858163 4.637519,-5.349114 6.21875,-8.125 0.146667,-0.248543 0.127602,-0.565604 0.09375,-0.78125 C 84.791318,27.110323 84.201414,26.823266 83.5,27.125 c -0.861108,0.35034 -1.809511,0.700658 -2.625,1 -0.613075,0.21698 -1.51187,0.47935 -2.25,0.71875 1.262774,-1.47519 2.703074,-3.45361 4.25,-6.40625 C 83.19827,21.790053 82.560645,20.901242 81.84375,21 z m -19.8125,3 c 3.263568,-0.062 5.984928,0.85695 8.1875,3.625 0.23923,0.299192 0.660351,0.439565 1.03125,0.34375 2.480099,-0.63806 5.047214,-1.8616 8.03125,-3.4375 -1.122558,1.71979 -2.181597,3.13806 -3,4 -0.596327,0.65834 -1.332708,1.262245 -2,1.78125 -0.250824,0.165127 -0.282822,0.401272 -0.28125,0.46875 7.43e-4,1.050799 0.504215,1.387402 1.4375,1.125 2.210574,-0.57533 4.381428,-1.26116 6.03125,-1.84375 -1.470508,2.18665 -2.950894,3.9606 -4.15625,5.03125 -1.66212,1.47637 -2.75,2 -2.75,2 C 74.225295,37.257826 73.997391,37.625005 74,38 74.61552,61.3365 56.98011,77.0356 38,77 30.196113,76.986 23.605164,74.5331 19.84375,71.9375 26.19272,71.7971 34.73935,70.29345 39.6875,65.71875 40.261795,65.163384 39.767432,63.981212 38.96875,64 33.586186,64.1091 29.531883,62.23545 26.6875,60.09375 c -1.619439,-1.2195 -2.722971,-2.4783 -3.53125,-3.5625 3.270683,0.8733 7.483472,1.55755 10.875,1.46875 0.523599,0.02454 1.022331,-0.429526 1.046875,-0.953125 C 35.102668,56.523276 34.648599,56.024544 34.125,56 c -3.716936,-0.4631 -7.313687,-2.7035 -9.9375,-5.625 -1.99477,-2.2211 -3.364433,-4.84201 -3.90625,-7.21875 0.519345,0.31773 1.04268,0.61542 1.6875,0.9375 1.794567,0.89637 3.946118,1.76178 5.96875,1.90625 0.854446,0.08643 1.3939,-1.250476 0.71875,-1.78125 -3.359893,-2.87982 -5.479252,-5.93789 -6.3125,-9.3125 C 21.63157,32.02196 22.062759,28.78609 23.375,25.1875 28.869957,33.48109 37.907817,40.18097 49.03125,40 49.565835,39.984292 50.0336,39.471259 50,38.9375 c -0.162808,-3.48895 0.935869,-7.247 3.03125,-10.09375 2.095381,-2.84675 5.130019,-4.77026 9,-4.84375 z" transform="translate(0,952.36218)" fill="#000000" fill-opacity="1" stroke="none" marker="none" visibility="visible" display="inline" overflow="visible"/></g><text x="0" y="115" fill="#000000" font-size="5px" font-weight="bold" font-family="'Helvetica Neue', Helvetica, Arial-Unicode, Arial, Sans-serif">Created by rivda</text><text x="0" y="120" fill="#000000" font-size="5px" font-weight="bold" font-family="'Helvetica Neue', Helvetica, Arial-Unicode, Arial, Sans-serif">from the Noun Project</text></svg>