<?xml version="1.0" encoding="utf-8"?><svg xmlns="http://www.w3.org/2000/svg" xmlns:xlink="http://www.w3.org/1999/xlink"><symbol viewBox="-12.5 0 125 125" id="Dots" xmlns="http://www.w3.org/2000/svg"><path d="M58.6 72.5H41.4v15h17.2v-15m.2-30H41.2v15h17.6v-15m-.2-30H41.4v15h17.2v-15z"/></symbol><symbol viewBox="0 0 512 512" id="Facebook" xmlns="http://www.w3.org/2000/svg"><path d="M288 176v-64c0-17.664 14.336-32 32-32h32V0h-64c-53.024 0-96 42.976-96 96v80h-64v80h64v256h96V256h64l32-80h-96z"/></symbol><symbol viewBox="0 0 512 512" id="Instagram" xmlns="http://www.w3.org/2000/svg"><path d="M352 0H160C71.648 0 0 71.648 0 160v192c0 88.352 71.648 160 160 160h192c88.352 0 160-71.648 160-160V160C512 71.648 440.352 0 352 0zm112 352c0 61.76-50.24 112-112 112H160c-61.76 0-112-50.24-112-112V160C48 98.24 98.24 48 160 48h192c61.76 0 112 50.24 112 112v192z"/><path d="M256 128c-70.688 0-128 57.312-128 128s57.312 128 128 128 128-57.312 128-128-57.312-128-128-128zm0 208c-44.096 0-80-35.904-80-80 0-44.128 35.904-80 80-80s80 35.872 80 80c0 44.096-35.904 80-80 80z"/><circle cx="393.6" cy="118.4" r="17.056"/></symbol><symbol viewBox="0 0 512 512" id="Linkedin" xmlns="http://www.w3.org/2000/svg"><path d="M0 160h114.496v352H0zM426.368 164.128c-1.216-.384-2.368-.8-3.648-1.152a74.218 74.218 0 0 0-4.64-.896c-6.08-1.216-12.736-2.08-20.544-2.08-66.752 0-109.088 48.544-123.04 67.296V160H160v352h114.496V320s86.528-120.512 123.04-32v224H512V274.464c0-53.184-36.448-97.504-85.632-110.336z"/><circle cx="56" cy="56" r="56"/></symbol><symbol viewBox="0 0 512.012 512.012" id="Pinterest" xmlns="http://www.w3.org/2000/svg"><path d="M511.869 183.98C509.085 112.972 443.773-1.332 254.301.012 56.445 1.42-1.379 133.932.029 209.676c1.376 75.776 50.848 117.696 50.848 117.696l73.856-60.864s-31.36 2.688-31.36-59.52c0-94.784 113.568-119.04 186.016-117.696s129.632 59.84 130.624 105.504c.96 44.64-10.88 72.96-47.04 93.312-43.2 24.352-95.552 2.72-95.552 2.72l.704-152.832-97.664.576-.256 269.952s-.896 21.6-26.112 20.288c-18.08-.928-40.928-20.8-40.928-20.8l.16 80.32s28.192 23.68 72.8 23.68c96.16 0 91.968-94.016 91.968-94.016v-52.96s19.616 9.472 58.624 9.472c161.664 0 187.488-130.976 185.152-190.528z"/></symbol><symbol viewBox="-12.5 0 125 125" id="Search" xmlns="http://www.w3.org/2000/svg"><path d="M87 81.3L69.1 63.4c9-11.7 8.1-28.6-2.7-39.3-5.9-5.9-13.5-8.8-21.2-8.8S29.9 18.2 24 24.1c-11.7 11.7-11.7 30.7 0 42.4 5.9 5.9 13.5 8.8 21.2 8.8 6.4 0 12.8-2 18.1-6.1l18 17.8c.8.8 1.8 1.2 2.9 1.2 1 0 2.1-.4 2.9-1.2 1.5-1.5 1.5-4.1-.1-5.7zM45.3 67.2c-5.9 0-11.3-2.3-15.5-6.4-8.5-8.5-8.5-22.4 0-31 4.1-4.1 9.6-6.4 15.5-6.4s11.3 2.3 15.5 6.4 6.4 9.6 6.4 15.5-2.3 11.3-6.4 15.5-9.7 6.4-15.5 6.4z"/></symbol><symbol viewBox="-12.5 0 125 125" id="Sun" xmlns="http://www.w3.org/2000/svg"><path d="M67.7 40.5c1.2-2.3 1.7-4.9 1.5-7.5-.3-3.6-2-6.8-4.8-9.1s-6.3-3.4-9.9-3.1c-4.9.4-9.1 3.5-11.1 7.9 0 .1-.1.2-.1.2-1.9-.7-3.8-1-5.8-1-7.3 0-13.7 4.4-16.3 11.1-6.1.9-10.7 6.1-10.7 12.4 0 7 5.6 12.6 12.5 12.6h34.8c7.4 0 13.5-6.1 13.5-13.5 0-3.7-1.5-7-3.9-9.5.1-.1.2-.3.3-.5zM46.2 30c1.5-3.5 4.9-5.8 8.6-6.2 2.8-.3 5.5.6 7.7 2.4s3.5 4.3 3.7 7.1c.2 2-.2 4-1.1 5.8-1.7-1.1-3.6-1.8-5.7-2.1-2.2-2.9-5.8-4.5-9.5-4-1.2-1-2.5-2-3.9-2.7.1-.1.1-.2.2-.3zm11.6 31H23c-5.2 0-9.5-4.3-9.5-9.5 0-5 3.9-9.2 8.9-9.5l1-.1.3-1c2-6 7.5-10 13.8-10 4.1 0 7.9 1.7 10.7 4.7l.6.6.8-.2c3.1-.6 6.1.7 7.7 3.2l.4.6h.7c5.5.3 9.8 4.9 9.8 10.5.1 6-4.7 10.7-10.4 10.7zM54 19.1h.1c.8-.1 1.4-.8 1.4-1.6l-.5-5.9c-.1-.8-.8-1.4-1.6-1.4-.8.1-1.4.8-1.4 1.6l.5 5.9c.1.8.7 1.4 1.5 1.4zM78.4 31.2l-5.9.5c-.8.1-1.4.8-1.4 1.6.1.8.7 1.4 1.5 1.4h.1l5.9-.5c.8-.1 1.4-.8 1.4-1.6 0-.9-.7-1.5-1.6-1.4zM69.3 27.8c.3.5.8.8 1.3.8.2 0 .5-.1.7-.2l2.6-1.4c.7-.4 1-1.3.6-2s-1.3-1-2-.6l-2.6 1.4c-.7.3-1 1.2-.6 2zM60.3 20.2c.2 0 .3.1.5.1.6 0 1.2-.4 1.4-1l.9-2.8c.3-.8-.2-1.6-1-1.9-.8-.3-1.6.2-1.9 1l-.9 2.8c-.2.7.2 1.5 1 1.8zM46.6 20.5c.3.5.8.8 1.3.8.2 0 .5-.1.7-.2.7-.4 1-1.3.7-2L48 16.5c-.4-.7-1.3-1-2-.6s-1 1.3-.7 2l1.3 2.6z"/><path d="M75 39.4l-2.8-.9c-.8-.3-1.6.2-1.9 1-.3.8.2 1.6 1 1.9l2.8.9c.2 0 .3.1.5.1.6 0 1.2-.4 1.4-1 .2-.9-.2-1.8-1-2zM66.6 23c.4 0 .9-.2 1.2-.5l3.8-4.5c.5-.6.4-1.6-.2-2.1-.6-.5-1.6-.4-2.1.2l-3.8 4.5c-.5.6-.4 1.6.2 2.1.2.2.5.3.9.3zM41.4 24.9c.3.2.6.3 1 .3s.9-.2 1.2-.5c.5-.6.4-1.6-.2-2.1l-4.5-3.8c-.6-.5-1.6-.4-2.1.2s-.4 1.6.2 2.1l4.4 3.8z"/></symbol><symbol viewBox="0 0 512 512" id="Twitter" xmlns="http://www.w3.org/2000/svg"><path d="M512 97.248c-19.04 8.352-39.328 13.888-60.48 16.576 21.76-12.992 38.368-33.408 46.176-58.016-20.288 12.096-42.688 20.64-66.56 25.408C411.872 60.704 384.416 48 354.464 48c-58.112 0-104.896 47.168-104.896 104.992 0 8.32.704 16.32 2.432 23.936-87.264-4.256-164.48-46.08-216.352-109.792-9.056 15.712-14.368 33.696-14.368 53.056 0 36.352 18.72 68.576 46.624 87.232-16.864-.32-33.408-5.216-47.424-12.928v1.152c0 51.008 36.384 93.376 84.096 103.136-8.544 2.336-17.856 3.456-27.52 3.456-6.72 0-13.504-.384-19.872-1.792 13.6 41.568 52.192 72.128 98.08 73.12-35.712 27.936-81.056 44.768-130.144 44.768-8.608 0-16.864-.384-25.12-1.44C46.496 446.88 101.6 464 161.024 464c193.152 0 298.752-160 298.752-298.688 0-4.64-.16-9.12-.384-13.568 20.832-14.784 38.336-33.248 52.608-54.496z"/></symbol><symbol viewBox="0 0 512 512" id="Youtube" xmlns="http://www.w3.org/2000/svg"><path d="M490.24 113.92c-13.888-24.704-28.96-29.248-59.648-30.976C399.936 80.864 322.848 80 256.064 80c-66.912 0-144.032.864-174.656 2.912-30.624 1.76-45.728 6.272-59.744 31.008C7.36 138.592 0 181.088 0 255.904v.256c0 74.496 7.36 117.312 21.664 141.728 14.016 24.704 29.088 29.184 59.712 31.264C112.032 430.944 189.152 432 256.064 432c66.784 0 143.872-1.056 174.56-2.816 30.688-2.08 45.76-6.56 59.648-31.264C504.704 373.504 512 330.688 512 256.192v-.16-.096c0-74.848-7.296-117.344-21.76-142.016zM192 352V160l160 96-160 96z"/></symbol></svg>