<?xml version="1.0" encoding="utf-8"?><svg xmlns="http://www.w3.org/2000/svg" xmlns:xlink="http://www.w3.org/1999/xlink"><symbol viewBox="-12.5 0 125 125" id="Dots" xmlns="http://www.w3.org/2000/svg"><path d="M58.6 72.5H41.4v15h17.2v-15m.2-30H41.2v15h17.6v-15m-.2-30H41.4v15h17.2v-15z"/></symbol><symbol viewBox="-12.5 0 125 125" id="Facebook" xmlns="http://www.w3.org/2000/svg"><path style="text-indent:0;text-align:start;line-height:normal;text-transform:none;block-progression:tb;marker:none;-inkscape-font-specification:Sans" d="M50 6C25.723 6 6 25.723 6 50s19.723 44 44 44 44-19.723 44-44S74.277 6 50 6zm0 4c22.115 0 40 17.885 40 40S72.115 90 50 90 10 72.115 10 50s17.885-40 40-40zm6 11c-3.767 0-7.478 1.11-10.313 3.469C42.853 26.828 41 30.493 41 35v7h-5a2 2 0 0 0-2 2v10.094a2 2 0 0 0 2.031 2L41 56.03V81a2 2 0 0 0 2 2h10a2 2 0 0 0 2-2V56h8a2 2 0 0 0 2-2V44a2 2 0 0 0-2-2h-8v-7h8a2 2 0 0 0 2-2V23a2 2 0 0 0-2-2h-7zm0 4h5v6h-8a2 2 0 0 0-2 2v11a2 2 0 0 0 2 2h8v6h-8a2 2 0 0 0-2 2v25h-6V54a2 2 0 0 0-2.031-2L38 52.063V46h5a2 2 0 0 0 2-2v-9c0-3.459 1.268-5.82 3.25-7.469S53.031 25 56 25z" font-weight="400" color="#000" overflow="visible" font-family="Sans"/><text y="115" font-size="5" font-weight="bold" font-family="'Helvetica Neue', Helvetica, Arial-Unicode, Arial, Sans-serif">Created by rivda</text><text y="120" font-size="5" font-weight="bold" font-family="'Helvetica Neue', Helvetica, Arial-Unicode, Arial, Sans-serif">from the Noun Project</text></symbol><symbol viewBox="-12.5 0 125 125" id="Instagram" xmlns="http://www.w3.org/2000/svg"><path d="M80 5H20C11.7 5 5 11.7 5 20v60c0 8.3 6.7 15 15 15h60c8.3 0 15-6.7 15-15V20c0-8.3-6.7-15-15-15zm5 75c0 2.8-2.2 5-5 5H20c-2.8 0-5-2.2-5-5V45h15.7c-.4 1.6-.7 3.3-.7 5 0 11 9 20 20 20s20-9 20-20c0-1.7-.2-3.4-.7-5H85v35zM40 50c0-5.5 4.5-10 10-10s10 4.5 10 10-4.5 10-10 10-10-4.5-10-10zm45-15H63.2c-3.5-3.1-8.1-5-13.2-5s-9.7 1.9-13.2 5H15V20c0-2.8 2.2-5 5-5h60c2.8 0 5 2.2 5 5v15z"/><path d="M70 20h10v10H70z"/><text y="115" font-size="5" font-weight="bold" font-family="'Helvetica Neue', Helvetica, Arial-Unicode, Arial, Sans-serif">Created by Arthur Shlain</text><text y="120" font-size="5" font-weight="bold" font-family="'Helvetica Neue', Helvetica, Arial-Unicode, Arial, Sans-serif">from the Noun Project</text></symbol><symbol viewBox="-12.5 0 125 125" id="Linkedin" xmlns="http://www.w3.org/2000/svg"><path style="text-indent:0;text-transform:none;block-progression:tb" d="M19 7C12.396 7 7 12.396 7 19s5.396 12 12 12 12-5.396 12-12S25.604 7 19 7zm0 4c4.442 0 8 3.558 8 8s-3.558 8-8 8a7.97 7.97 0 0 1-8-8c0-4.442 3.558-8 8-8zm52 22c-6.395 0-10.741 2.72-14 5.844V37c0-1.047-.953-2-2-2H39c-1.047 0-2 .953-2 2v54c0 1.047.953 2 2 2h17c1.047 0 2-.953 2-2V61c0-2.531.798-4.93 1.969-6.563C61.139 52.806 62.555 52 64 52h2c1.445 0 2.86.805 4.031 2.438C71.202 56.07 72 58.468 72 61v30c0 1.047.953 2 2 2h17c1.047 0 2-.953 2-2V80c.015-1.057-.943-2.028-2-2.028s-2.015.971-2 2.028v9H76V61c0-3.341-.998-6.476-2.719-8.875C71.561 49.725 68.987 48 66 48h-2c-2.987 0-5.56 1.726-7.281 4.125C54.998 54.525 54 57.659 54 61v12h-1.188c-1.047.049-1.955 1.046-1.906 2.094C50.955 76.14 51.953 77.049 53 77h1v4h-1.188c-1.047.049-1.955 1.046-1.906 2.094C50.955 84.14 51.953 85.049 53 85h1v4H41V39h12v5c0 .823.562 1.616 1.338 1.888.776.273 1.71.005 2.224-.638C59.92 41.064 63.498 37 71 37c7.174 0 11.455 1.844 14.125 4.969C87.795 45.093 89 49.846 89 56v16c-.015 1.057.943 2.028 2 2.028s2.015-.971 2-2.028V56c0-6.667-1.25-12.455-4.813-16.625C84.626 35.205 78.898 33 71 33zm-60.188 2c-.983.093-1.816 1.012-1.812 2v54c0 1.047.953 2 2 2h17c1.047 0 2-.953 2-2V37c0-1.047-.953-2-2-2H10.812zM13 39h13v34h-1.188c-1.047.049-1.955 1.046-1.906 2.094C22.955 76.14 23.953 77.049 25 77h1v4h-1.188c-1.047.049-1.955 1.046-1.906 2.094C22.955 84.14 23.953 85.049 25 85h1v4H13z" overflow="visible" color="#000"/><text y="115" font-size="5" font-weight="bold" font-family="'Helvetica Neue', Helvetica, Arial-Unicode, Arial, Sans-serif">Created by rivda</text><text y="120" font-size="5" font-weight="bold" font-family="'Helvetica Neue', Helvetica, Arial-Unicode, Arial, Sans-serif">from the Noun Project</text></symbol><symbol viewBox="-11.25 0 112.5 112.5" id="Pinterest" xmlns="http://www.w3.org/2000/svg"><switch><g fill-rule="evenodd" clip-rule="evenodd"><path d="M71.354 64.47h1.257c-2.409 9.879-8.247 16.331-12.569 24.302-.349-1.491 1.115-3.668 2.094-5.447 2.929-5.319 7.193-11.261 9.219-17.598l-.001-1.257zM43.702 74.105c1.536 4.225-1.43 11.114-3.352 14.666.905-5.101 2.409-9.602 3.352-14.666z"/><path d="M52.92 1.204c.485-.068.746.093.837.419-2.391 4.312-5.665 7.742-7.96 12.15 6.231.907 10.18-4.833 10.474-10.056 2.414 3.175.373 8.478 3.771 10.895 1.809-3.08.464-9.313 2.933-11.732 1.09 4.335-2.068 10.179-.839 14.664 6.356-1.605 3.781-12.141 7.961-15.921-1.512 7.006-2.051 14.989-7.541 18.017.026 2.207 2.246 2.223 2.514 4.189 3.272-3.85 4.333-9.911 10.475-10.893.304-2.612-3.133-4.912-2.096-9.636 4.692-3.143 6.639.182 9.638 3.351 2.207 2.333 5.622 3.987 5.027 6.704-4.762-2.362-5.51-8.738-11.312-10.055 2.271 6.956 8.959 11.694 11.312 17.177-6.159-3.619-8.382-11.171-12.988-16.34-.53 8.518 7.943 15.221 11.313 22.625.776 1.459 3.062 1.405 2.934 3.771-2.329.809-6.621-2.216-9.219 0 2.552 2.198 6.617 2.88 9.219 5.028-2.025 2.16-4.873-1.348-6.705-2.095.456 3.219 5.177 5.685 6.285 9.636-3.794-2.373-7.585-8.322-10.476-12.989-.854-.995-1.656.575-2.514-.418 1.09-2.735-1.893-3.231-4.188-3.771 4.967 8.577 11.202 15.89 17.598 23.042-4.046-.143-4.356-4.024-7.124-5.445-.372 4.285 4.699 6.751 6.284 10.474-1.358.725-2.826-1.485-3.771-2.515-.425 3.923 1.189 9.313 0 12.989.186 1.491 1.518 1.834 2.096 2.934.644 5.178-.035 11.005-1.257 15.921-.505 2.029-1.446 5.054-3.353 5.447 1.843-6.692 4.774-14.063 2.934-20.95-3.423 6.354-4.498 15.055-8.379 20.95-.236-5.235 5.327-12.241 5.445-20.531-4.819 5.237-7.154 12.955-9.636 20.531-1.53-3.057 1.651-6.139 2.514-9.638 2.52-10.229 2.223-23.948 2.934-34.775-1.683.609-2.877 4.062-1.677 5.028-1.608 1.776-.327 6.659-.42 10.056-.317 11.895-3.876 21.908-9.636 29.329-.534-2.539 2.809-6.021 4.608-10.056 1.832-4.104 6.224-15.572.42-15.923-2.329-.139-6.505 5.574-8.799 8.799-2.623 3.686-5.516 8.427-6.285 10.895-.937 3.007-.49 5.044-3.351 6.285.96-8.087 6.124-17.833 2.514-26.396-3.167 7.865-4.731 17.333-6.704 26.396-2.313-9.449 4.394-17.106 4.19-27.235-1.961-.819-1.886 1.795-2.097 3.354-.75-.054-.882.512-1.675.418-1.621 6.338-4.187 11.735-3.771 20.11.648.909 1.412 2.595 0 3.354-4.843-8.313 3.528-17.54 2.932-25.139-.27-3.461-3.201-5.76-4.188-9.219-2.898 5.203-2.365 13.835-5.028 19.273 1.945-1.268 4.547-1.878 5.028-4.609 1.833.332 1.953 2.603.837 3.771-6.741-1.414-7.723 9.377-11.313 13.826.127-3.783 2.502-5.318 2.934-8.799-1.101.129-4.395 1.439-5.866-.417-.842-3.921.545-6.257 1.257-9.638-1.284-.57-2.558 2.46-3.353 3.771-1.034-3.553 4.175-4.479 4.19-8.379-2.928 1.401-5.23 3.428-6.704 6.284 3.336 5.742 5.892 12.265 7.961 19.274-3.448-.125-2.985-4.425-3.771-6.705-1.758-5.099-4.402-10.018-7.961-13.406.181 8.06 4.058 14.654 5.447 20.111-3.207-1.125-4.008-5.905-5.027-9.219-1.051-3.415-1.491-7.325-2.514-10.475-4.361 6.159 1.147 15.119 1.676 19.693-2.641.446-.923-2.814-2.514-4.19-1.313 1.341-2.517 2.79-3.771 4.19-1.541-1.107 2.41-3.646 2.933-5.447-.566-2.227-1.114-4.473-.837-7.542-2.15 4.413-2.321 10.807-6.704 12.989 1.591-5.03 9.116-15.438 4.609-20.111-1.682 8.094-5.676 13.876-9.217 20.111-.168-3.981 4.678-8.481 6.704-13.827.827-2.185.399-4.82 1.257-7.123-6.332 1.628-6.396 9.526-9.217 14.665-1.194-4.481 3.36-10.271 5.028-14.665 7.203-3.97 17.732-4.612 23.043-10.474-3.707.275-7.578 2.064-11.731 3.352-6.003 1.86-11.846 5.73-16.759 5.447 1.07-2.107 5.711-2.179 8.38-3.354 1.109-.489 2.305-1.156 2.932-2.094 6.685-.859 10.949-4.135 17.597-5.028-3.047-5.74-6.221-.623-10.893 1.677-5.332 2.625-11.191 3.753-17.597 3.352 1.566-2.966 5.062-.987 7.96-1.257 5.989-.56 11.465-3.823 14.664-7.122-6.548.157-16.072 3.199-21.787 4.188 4.754-3.766 13.131-3.906 20.111-5.445-6.475-3.389-12.217.178-19.691 1.257.876-2.479 4.75-1.953 7.122-2.934.659-6.604 2.347-15.428 5.028-21.368-3.889-.441-6.455-2.205-7.96-5.027-.033 2.958 7.439 18.67 1.257 20.53-5.313 1.6-10.788-12.043-10.057-15.921 1.999 5.124 3.864 10.382 7.542 13.826-.427-10.187-4.587-20.271-7.542-29.327h1.257C3.058 9.856.157 8.312 1.385 6.231c4.472 6.283 7.343 14.166 13.407 18.854C12.945 16.878 9.283 10.484 6.413 3.3c2.483.814 2.744 4.035 3.771 6.285 2.26 4.949 4.298 11.619 7.96 16.34-.729-8.363-5.972-14.405-7.123-20.95 3.803 6.113 6.88 12.951 8.38 21.368 9.922-9.616 6.202 16.067 4.189 21.368 4.257 1.189 7.063 3.832 10.894 5.447 1.241-1.412 1.021-4.286 1.676-6.284-.982-.681-2.69 1.483-4.189 1.676-5.709-1.684-3.785-9.198-4.609-14.246-.926-5.672 2.401-9.436 4.19-12.989-1.416-.564-3.911 1.386-6.704.839.093-1.35-.741-1.775-.419-3.353-5.322-3.057-9.114-7.646-11.312-13.826 4.074 3.049 5.454 8.791 10.055 11.312-.979-5.467-7.735-7.32-7.123-12.987 3.261 3.442 5.23 8.177 8.799 11.313.049-5.356-3.494-7.121-4.608-11.313 2.965 1.921 4.421 5.354 5.447 9.216 2.429-2.458 1.253-8.524 5.027-9.636-1.986 5.416-4.277 10.527-5.027 17.178 4.541-3.56 6.755-13.076 12.988-16.34-4.03 4.91-7.645 10.23-10.474 16.34 9.095-1.1 12.732-11.288 19.273-16.34-1.619 3.55-4.958 5.378-4.608 10.895 4.24-3.582 6.586-9.053 10.054-13.409zm-2.934 13.408c3.069.282 5.131 1.571 7.541 2.514.534-2.741-.391-5.483-1.676-7.542-1.428 2.2-3.849 3.411-5.865 5.028zM12.278 41.425c2.876-8.474-4.053-15.14-3.351-21.786-2.424-1.768-3.432-4.949-5.448-7.124 3.348 9.223 4.873 20.267 8.799 28.91zm25.139-25.138c1.782-.173 2.72-1.189 4.19-1.674.062-1.04.078-2.036-.838-2.096-.716 1.658-2.179 2.57-3.352 3.77zm28.489 8.38c1.431 1.921.936 5.769 1.677 8.379.977-2.796 1.17-6.372 2.095-9.218 4.217-.671 4.131-5.646 5.447-9.216-5.194 1.228-5.59 7.256-9.219 10.055zm-18.853 24.72c4.231-2.108 9.034-.948 12.151-3.352 2.953-2.278 5.674-7.477 6.285-10.055 2.742-11.595-7.995-20.404-20.111-20.531-2.481.872-5.163 1.541-7.542 2.514-.529 1.287-.636 2.996-2.095 3.351-.303-1.28.429-1.526.419-2.514-4.359 3.364-8.756 10.066-6.285 17.597 6.535-2.699 5.567-9.876 10.894-12.987 7.523-4.394 18.496 1.703 17.178 10.893-.375 2.609-2.682 6.586-5.867 7.122-8.223 1.386-6.568-6.966-4.188-10.893-6.924-6.096-7.223 7.706-9.218 15.083-2.657 9.822-6.802 23.871-5.446 31.423 11.239-2.954 3.229-22.372 13.825-27.651zm25.977-24.72c1.873.082 2.598 1.311 3.771 2.094 1.624-2.635 2.62-9.084 0-11.313-1.424 2.906-2.646 6.016-3.771 9.219zm-13.408-6.284c-.047-1.069-.078-2.157-1.257-2.096-.328 1.446.393 1.842 1.257 2.096zm18.854 10.473c1.429-1.085 4.171-.858 6.705-.837-1.373-3.235-3.084-6.133-5.447-8.379.149 3.638-1.322 5.66-1.258 9.216zm-36.869-1.675c.983.132 1.572.661 2.932.418-.004-1.819.834-2.796 1.257-4.188-2.472.178-4.709.596-4.189 3.77zm4.609.418c2.174.929 3.979-1.037 5.027-2.514-.987-.827-2.805-.827-4.19-1.257-.449 1.088-1.017 2.055-.837 3.771zm-25.139 20.95c3.792-4.435 4.326-15.691 2.934-22.625h-1.257c-.52 7.06-3.206 16.296-1.677 22.625zm10.894-1.676c5.911-.502 10.522-17.646 7.542-20.949-3.442 6.056-5.229 13.764-7.542 20.949zM49.148 31.37c2.045 1.448 5.083 1.899 6.703 3.771 1.278-3.992-.696-8.195-3.771-9.216-1.796 1.692-2.945 2.749-2.932 5.445zM15.63 48.549h2.514c1.607-5.834 2.759-16.461 2.095-21.787-2.895 5.658-5.134 14.092-4.609 21.787zm62.429-6.704c.832-.005.531-1.145 1.675-.837-2.641-4.762-4.975-9.831-9.217-12.989 1.503 5.619 3.966 10.276 7.542 13.826zm-13.827-.837c3.046 4.992 7.78-.843 8.379-4.61-1.405-1.667-1.798-4.345-3.352-5.865-.571 4.597-2.474 7.861-5.027 10.475zm-16.34-3.771c1.239 1.273 2.951 2.075 4.608 2.932 1.17-1.203 2.962-1.787 2.934-4.188-2.564-.817-8.16-5.327-7.542 1.256zm-18.854 1.257c-.743 3.108-.127 5.178.837 7.542 2.503-2.389 4.239-7.77 4.19-11.312-1.08 1.852-2.738 3.125-5.027 3.77zm40.222 5.865c2.069 1.001 3.831 2.312 5.445 3.771.597-1.78 1.379-3.373 2.097-5.028-1.746-1.048-1.536-4.051-3.771-4.608-.629 2.583-2.532 3.892-3.771 5.865zm-7.542.837c4.089 2.494 8.742 6.594 12.987 7.542-.893-6.367-7.049-7.476-11.73-10.056-.007 1.25-1.089 1.425-1.257 2.514zm15.921 28.073c.39-3.223 4.934-4.759 5.865-8.379 1.798-6.978-.789-14.921-2.932-20.111-1.123 8.623-3.123 18.979-2.933 28.49zm-5.866-19.692c-3.031-3-7.853-6.363-11.731-7.124 3.333 5.046 8.869 7.89 14.663 10.475.483-2.576-1.153-3.036-2.932-3.351zm2.932 5.445c-2.121-2.307-5.887-2.559-9.636-5.027-2.625-1.729-4.344-5.593-7.122-5.865-1.703-.168-4.07 1.462-5.867 2.514 7.258 2.38 10.666 8.607 15.503 13.406 1.334-.899 2.119-2.35 3.771-2.932 1.567-.164 2.38 1.686 3.351.838v-2.934zm-12.987.42c-4.021-2.425-7.157-7.897-12.569-7.542 5.218 5.258 9.763 11.186 15.501 15.921 2.4-3.228-2.551-5.253-2.932-8.379zm-11.313 2.514c.687-1.13 1.638-1.994 2.933-2.514-1.707-3.18-4.878-4.897-7.122-7.542.647 4.102 1.485 8.011 4.189 10.056zm-33.518 4.608c.258 1.139.831 1.962 1.676 2.514 1.024-2.309 4.925-2.63 6.704-.838 1.583-3.865 7.656-5.469 7.96-9.218-4.651 3.311-9.859 6.062-16.34 7.542zM56.271 80.81c1.73-4.275 4.305-7.707 6.704-11.313-1.749-1.603-3.109-3.594-5.027-5.027.66 6.388-1.592 12.093-1.677 16.34z"/></g></switch><text y="105" font-size="5" font-weight="bold" font-family="'Helvetica Neue', Helvetica, Arial-Unicode, Arial, Sans-serif">Created by Saloni Sinha</text><text y="110" font-size="5" font-weight="bold" font-family="'Helvetica Neue', Helvetica, Arial-Unicode, Arial, Sans-serif">from the Noun Project</text></symbol><symbol viewBox="-12.5 0 125 125" id="Search" xmlns="http://www.w3.org/2000/svg"><path d="M87 81.3L69.1 63.4c9-11.7 8.1-28.6-2.7-39.3-5.9-5.9-13.5-8.8-21.2-8.8S29.9 18.2 24 24.1c-11.7 11.7-11.7 30.7 0 42.4 5.9 5.9 13.5 8.8 21.2 8.8 6.4 0 12.8-2 18.1-6.1l18 17.8c.8.8 1.8 1.2 2.9 1.2 1 0 2.1-.4 2.9-1.2 1.5-1.5 1.5-4.1-.1-5.7zM45.3 67.2c-5.9 0-11.3-2.3-15.5-6.4-8.5-8.5-8.5-22.4 0-31 4.1-4.1 9.6-6.4 15.5-6.4s11.3 2.3 15.5 6.4 6.4 9.6 6.4 15.5-2.3 11.3-6.4 15.5-9.7 6.4-15.5 6.4z"/></symbol><symbol viewBox="-12.5 0 125 125" id="Sun" xmlns="http://www.w3.org/2000/svg"><path d="M67.7 40.5c1.2-2.3 1.7-4.9 1.5-7.5-.3-3.6-2-6.8-4.8-9.1s-6.3-3.4-9.9-3.1c-4.9.4-9.1 3.5-11.1 7.9 0 .1-.1.2-.1.2-1.9-.7-3.8-1-5.8-1-7.3 0-13.7 4.4-16.3 11.1-6.1.9-10.7 6.1-10.7 12.4 0 7 5.6 12.6 12.5 12.6h34.8c7.4 0 13.5-6.1 13.5-13.5 0-3.7-1.5-7-3.9-9.5.1-.1.2-.3.3-.5zM46.2 30c1.5-3.5 4.9-5.8 8.6-6.2 2.8-.3 5.5.6 7.7 2.4s3.5 4.3 3.7 7.1c.2 2-.2 4-1.1 5.8-1.7-1.1-3.6-1.8-5.7-2.1-2.2-2.9-5.8-4.5-9.5-4-1.2-1-2.5-2-3.9-2.7.1-.1.1-.2.2-.3zm11.6 31H23c-5.2 0-9.5-4.3-9.5-9.5 0-5 3.9-9.2 8.9-9.5l1-.1.3-1c2-6 7.5-10 13.8-10 4.1 0 7.9 1.7 10.7 4.7l.6.6.8-.2c3.1-.6 6.1.7 7.7 3.2l.4.6h.7c5.5.3 9.8 4.9 9.8 10.5.1 6-4.7 10.7-10.4 10.7zM54 19.1h.1c.8-.1 1.4-.8 1.4-1.6l-.5-5.9c-.1-.8-.8-1.4-1.6-1.4-.8.1-1.4.8-1.4 1.6l.5 5.9c.1.8.7 1.4 1.5 1.4zM78.4 31.2l-5.9.5c-.8.1-1.4.8-1.4 1.6.1.8.7 1.4 1.5 1.4h.1l5.9-.5c.8-.1 1.4-.8 1.4-1.6 0-.9-.7-1.5-1.6-1.4zM69.3 27.8c.3.5.8.8 1.3.8.2 0 .5-.1.7-.2l2.6-1.4c.7-.4 1-1.3.6-2s-1.3-1-2-.6l-2.6 1.4c-.7.3-1 1.2-.6 2zM60.3 20.2c.2 0 .3.1.5.1.6 0 1.2-.4 1.4-1l.9-2.8c.3-.8-.2-1.6-1-1.9-.8-.3-1.6.2-1.9 1l-.9 2.8c-.2.7.2 1.5 1 1.8zM46.6 20.5c.3.5.8.8 1.3.8.2 0 .5-.1.7-.2.7-.4 1-1.3.7-2L48 16.5c-.4-.7-1.3-1-2-.6s-1 1.3-.7 2l1.3 2.6z"/><path d="M75 39.4l-2.8-.9c-.8-.3-1.6.2-1.9 1-.3.8.2 1.6 1 1.9l2.8.9c.2 0 .3.1.5.1.6 0 1.2-.4 1.4-1 .2-.9-.2-1.8-1-2zM66.6 23c.4 0 .9-.2 1.2-.5l3.8-4.5c.5-.6.4-1.6-.2-2.1-.6-.5-1.6-.4-2.1.2l-3.8 4.5c-.5.6-.4 1.6.2 2.1.2.2.5.3.9.3zM41.4 24.9c.3.2.6.3 1 .3s.9-.2 1.2-.5c.5-.6.4-1.6-.2-2.1l-4.5-3.8c-.6-.5-1.6-.4-2.1.2s-.4 1.6.2 2.1l4.4 3.8z"/></symbol><symbol viewBox="-12.5 0 125 125" id="Twitter" xmlns="http://www.w3.org/2000/svg"><path style="text-indent:0;text-transform:none;block-progression:tb" d="M7.813 7c-.459.087-.821.533-.813 1v84c0 .524.476 1 1 1h84c.524 0 1-.476 1-1V8c0-.524-.476-1-1-1H7.812zM9 9h82v82H9zm72.844 12c-.121.02-.238.063-.344.125-4.47 2.565-7.32 3.9-10.25 4.719-2.532-2.802-5.826-3.91-9.281-3.844-4.528.086-8.17 2.406-10.563 5.656-2.174 2.954-3.314 6.654-3.375 10.282-10.599-.231-19.268-7.111-24.156-15.47-.366-.636-1.484-.577-1.781.095-2.113 4.683-2.644 8.972-1.688 12.843.712 2.881 2.45 5.426 4.657 7.844-1.579-.548-2.968-1.304-4.344-2.156-.554-.369-.942-.766-.907-.719-.491-.685-1.82-.25-1.812.594-.052 3.598 1.802 7.505 4.688 10.718a21.525 21.525 0 0 0 4.468 3.75c-2.35-.366-4.518-.864-5.781-1.374-.716-.293-1.587.557-1.313 1.28.55 1.469 2.301 3.983 5.438 6.344 2.547 1.918 6.054 3.552 10.406 4.063-5.363 3.24-13.713 4.5-18.843 4.25-.795-.045-1.33 1.11-.782 1.688C19.87 75.466 28.084 78.98 38 79c19.935.037 38.319-16.43 37.969-40.5.36-.192 1.165-.554 2.687-1.906 2.713-2.858 4.638-5.35 6.219-8.125.147-.249.128-.566.094-.782-.178-.577-.768-.864-1.469-.562-.861.35-1.81.7-2.625 1-.613.217-1.512.48-2.25.719 1.263-1.475 2.703-3.454 4.25-6.407.323-.647-.314-1.536-1.031-1.437zM62.03 24c3.264-.062 5.985.857 8.188 3.625.239.3.66.44 1.031.344 2.48-.638 5.047-1.862 8.031-3.438-1.122 1.72-2.181 3.138-3 4-.596.659-1.332 1.262-2 1.782a.585.585 0 0 0-.281.468c0 1.051.504 1.388 1.438 1.125a77.31 77.31 0 0 0 6.03-1.843c-1.47 2.186-2.95 3.96-4.156 5.03-1.662 1.477-2.75 2-2.75 2A1.023 1.023 0 0 0 74 38c.616 23.337-17.02 39.036-36 39-7.804-.014-14.395-2.467-18.156-5.063 6.349-.14 14.895-1.644 19.843-6.218.575-.556.08-1.738-.718-1.719-5.383.11-9.437-1.765-12.282-3.906a17.36 17.36 0 0 1-3.53-3.563c3.27.874 7.483 1.558 10.874 1.469.524.025 1.023-.43 1.047-.953.025-.524-.43-1.022-.953-1.047-3.717-.463-7.314-2.704-9.938-5.625-1.994-2.221-3.364-4.842-3.906-7.219.52.318 1.043.616 1.688.938 1.794.896 3.946 1.762 5.968 1.906.855.086 1.394-1.25.72-1.781-3.36-2.88-5.48-5.938-6.313-9.313-.712-2.884-.281-6.12 1.031-9.718C28.87 33.48 37.908 40.18 49.031 40c.535-.016 1.003-.529.969-1.063-.163-3.488.936-7.246 3.031-10.093 2.096-2.847 5.13-4.77 9-4.844z" overflow="visible" color="#000"/><text y="115" font-size="5" font-weight="bold" font-family="'Helvetica Neue', Helvetica, Arial-Unicode, Arial, Sans-serif">Created by rivda</text><text y="120" font-size="5" font-weight="bold" font-family="'Helvetica Neue', Helvetica, Arial-Unicode, Arial, Sans-serif">from the Noun Project</text></symbol><symbol viewBox="-12.5 0 125 125" id="Youtube" xmlns="http://www.w3.org/2000/svg"><defs><style>.icls-1{fill:none;stroke:#000;stroke-linecap:round;stroke-linejoin:round;stroke-width:3px}</style></defs><rect class="icls-1" x="17.5" y="27.5" width="65" height="45" rx="11" ry="11"/><path d="M59 48.22a2 2 0 0 1 0 3.56L52.75 55l-6.84 3.51A2 2 0 0 1 43 56.74V43.26a2 2 0 0 1 2.91-1.78L52.75 45z"/><text y="115" font-size="5" font-weight="bold" font-family="'Helvetica Neue', Helvetica, Arial-Unicode, Arial, Sans-serif">Created by shwepes</text><text y="120" font-size="5" font-weight="bold" font-family="'Helvetica Neue', Helvetica, Arial-Unicode, Arial, Sans-serif">from the Noun Project</text></symbol></svg>